HIERARCHY
ROOT Hips
{
	OFFSET	0.000000	0.000000	0.000000
	CHANNELS 6 Xposition Yposition Zposition Zrotation Xrotation Yrotation
	JOINT LeftHip
	{
		OFFSET	4.740440	-3.195970	-0.322709
		CHANNELS 3 Zrotation Xrotation Yrotation
		JOINT LeftKnee
		{
			OFFSET	-1.605680	-15.592300	1.005510
			CHANNELS 3 Zrotation Xrotation Yrotation
			JOINT LeftAnkle
			{
				OFFSET	-0.632401	-16.421000	-1.413730
				CHANNELS 3 Zrotation Xrotation Yrotation
				End Site
				{
					OFFSET	0.008423	-2.933000	-1.684880
				}
			}
		}
	}
	JOINT RightHip
	{
		OFFSET	-4.740440	-3.195970	-0.322709
		CHANNELS 3 Zrotation Xrotation Yrotation
		JOINT RightKnee
		{
			OFFSET	1.605680	-15.592300	1.005510
			CHANNELS 3 Zrotation Xrotation Yrotation
			JOINT RightAnkle
			{
				OFFSET	0.632401	-16.421000	-1.413730
				CHANNELS 3 Zrotation Xrotation Yrotation
				End Site
				{
					OFFSET	-0.008423	-2.933000	-1.684880
				}
			}
		}
	}
	JOINT Chest
	{
		OFFSET	0.000000	3.468200	0.078401
		CHANNELS 3 Zrotation Xrotation Yrotation
		JOINT LeftCollar
		{
			OFFSET	3.857650	15.070700	-0.011583
			CHANNELS 3 Zrotation Xrotation Yrotation
			JOINT LeftShoulder
			{
				OFFSET	3.979720	-1.940530	-0.165223
				CHANNELS 3 Zrotation Xrotation Yrotation
				JOINT LeftElbow
				{
					OFFSET	0.615844	-10.986600	-0.673886
					CHANNELS 3 Zrotation Xrotation Yrotation
					JOINT LeftWrist
					{
						OFFSET	0.826843	-10.854500	1.034220
						CHANNELS 3 Zrotation Xrotation Yrotation
						End Site
						{
							OFFSET	-1.679080	-8.456540	0.936217
						}
					}
				}
			}
		}
		JOINT RightCollar
		{
			OFFSET	-3.857650	15.070700	-0.011583
			CHANNELS 3 Zrotation Xrotation Yrotation
			JOINT RightShoulder
			{
				OFFSET	-3.979720	-1.940530	-0.165223
				CHANNELS 3 Zrotation Xrotation Yrotation
				JOINT RightElbow
				{
					OFFSET	-0.615845	-10.986600	-0.673886
					CHANNELS 3 Zrotation Xrotation Yrotation
					JOINT RightWrist
					{
						OFFSET	-0.826843	-10.854500	1.034220
						CHANNELS 3 Zrotation Xrotation Yrotation
						End Site
						{
							OFFSET	1.679080	-8.456540	0.936217
						}
					}
				}
			}
		}
		JOINT Neck
		{
			OFFSET	0.000000	15.101400	0.055730
			CHANNELS 3 Zrotation Xrotation Yrotation
			JOINT Head
			{
				OFFSET	0.000000	4.185120	1.488260
				CHANNELS 3 Zrotation Xrotation Yrotation
				End Site
				{
					OFFSET	0.000000	7.773420	-0.106016
				}
			}
		}
	}
}
MOTION
Frames:    13
Frame Time: 0.016667
122.845139	36.654972	124.858185	-17.490582	-8.346607	-76.964104	-10.534578	12.533961	-0.759003	-3.915864	-9.179158	9.489018	13.955254	12.276207	-5.049651	-11.615779	-16.439297	-1.436313	-23.497974	118.214767	55.375317	2.576693	10.525487	-11.997850	-7.518239	8.808727	6.550028	-1.672976	-1.876209	-20.749390	-6.889368	-25.256956	-27.336552	-98.798729	-21.345013	-59.807896	-8.923527	34.945591	-21.721043	-5.136974	-0.415846	0.754816	9.039488	-33.640575	31.523817	64.125771	-51.674820	50.980221	32.127163	-11.420769	6.792393	-3.805553	18.849342	-26.682592	13.680779	11.212152	-34.946976	
122.846016	36.654621	124.856598	-17.488155	-8.351719	-76.953384	-10.535628	12.540651	-0.747051	-3.920696	-9.194609	9.467801	13.957193	12.286371	-5.054725	-11.622985	-16.438507	-1.446378	-23.499115	118.214142	55.394840	2.575413	10.533548	-12.010245	-7.562835	8.751023	6.583134	-1.633733	-1.803559	-20.787132	-6.827560	-25.287951	-27.366453	-98.853989	-21.353226	-59.723476	-8.933439	34.983181	-21.771929	-5.065502	-0.346665	0.696775	8.967435	-33.507648	31.510941	64.121506	-51.778130	50.875496	32.243568	-11.295077	6.939727	-3.742157	18.939045	-26.712866	13.689281	11.183500	-34.949783	
122.845322	36.653881	124.854950	-17.481064	-8.366647	-76.922089	-10.542852	12.548729	-0.755615	-3.925373	-9.211668	9.446966	13.959415	12.298039	-5.060521	-11.648063	-16.435791	-1.478009	-23.498358	118.213333	55.412388	2.579662	10.532887	-12.028771	-7.681741	8.597634	6.665126	-1.529648	-1.608162	-20.887341	-6.614114	-25.386570	-27.466858	-99.061020	-21.373573	-59.515476	-8.948397	35.084339	-21.892616	-4.898095	-0.180094	0.557000	8.886025	-33.364876	31.452612	64.023445	-51.979877	50.395615	32.465523	-10.564524	7.516562	-3.572387	19.191959	-26.788824	13.773234	11.270230	-34.951347	
122.846832	36.653442	124.853203	-17.478884	-8.371243	-76.912453	-10.543577	12.555457	-0.742137	-3.930125	-9.229161	9.425716	13.961699	12.310025	-5.066495	-11.655786	-16.434942	-1.487751	-23.497557	118.212433	55.431995	2.584398	10.532175	-12.049417	-7.715484	8.554059	6.687134	-1.499794	-1.553058	-20.916582	-6.489899	-25.427826	-27.469854	-99.183937	-21.375246	-59.472733	-8.948845	35.111645	-21.927280	-4.845662	-0.130920	0.512106	8.845348	-33.292103	31.416203	64.018089	-52.061291	50.339703	32.514915	-10.185328	7.786626	-3.522460	19.276314	-26.808262	13.802254	11.269794	-34.914963	
122.846779	36.652782	124.851608	-17.473232	-8.383112	-76.887512	-10.549026	12.562754	-0.745693	-3.934473	-9.245764	9.406211	13.963893	12.321518	-5.072191	-11.667562	-16.433548	-1.508376	-23.507999	118.212875	55.457554	2.589614	10.531382	-12.072204	-7.743450	8.528107	6.681822	-1.479894	-1.516099	-20.943514	-6.158348	-25.524778	-27.506365	-99.495033	-21.373423	-59.324108	-8.955691	35.159443	-22.031487	-4.784331	-0.089813	0.449747	8.736341	-33.100567	31.239517	63.690586	-52.104515	50.159283	32.861103	-9.060651	8.773989	-3.467629	19.479042	-26.796808	13.958304	11.254243	-34.786510	
122.847748	36.652378	124.851089	-17.471666	-8.386389	-76.880615	-10.550961	12.563610	-0.751191	-3.934256	-9.252301	9.406201	13.964980	12.327261	-5.075049	-11.664347	-16.433784	-1.510450	-23.519600	118.213844	55.473476	2.592452	10.530961	-12.084559	-7.748149	8.524673	6.677434	-1.477408	-1.512745	-20.945499	-6.081808	-25.545269	-27.517859	-99.576561	-21.372047	-59.252445	-8.938350	35.185261	-22.094690	-4.780114	-0.085512	0.445759	8.702482	-33.037201	31.147308	63.515869	-52.046448	50.090885	32.785736	-8.693425	8.886598	-3.455034	19.543238	-26.789181	13.995296	11.247750	-34.737625	
122.849915	36.651558	124.850128	-17.468771	-8.392470	-76.867859	-10.554772	12.564482	-0.763881	-3.933170	-9.264702	9.408990	13.967161	12.338671	-5.080712	-11.653410	-16.434690	-1.511496	-23.547438	118.216110	55.515488	2.600170	10.529723	-12.118242	-7.752862	8.524938	6.664882	-1.477408	-1.512745	-20.945499	-5.955078	-25.578098	-27.524008	-99.687515	-21.421354	-59.047428	-9.012449	35.299561	-22.297791	-4.780114	-0.085512	0.445759	8.464367	-32.910748	30.789223	63.186584	-51.670307	49.798672	32.474602	-7.504304	9.518581	-3.434124	19.678843	-26.768379	14.091980	11.280461	-34.581921	
122.849167	36.651810	124.849648	-17.468771	-8.392470	-76.867859	-10.553347	12.568521	-0.748419	-3.937122	-9.267666	9.392763	13.967161	12.338671	-5.080712	-11.647947	-16.435213	-1.508442	-23.554537	118.216522	55.529461	2.602923	10.529321	-12.130207	-7.752862	8.524938	6.664882	-1.477408	-1.512745	-20.945499	-5.955078	-25.578098	-27.524008	-99.681557	-21.420921	-58.973782	-9.026818	35.303715	-22.410446	-4.780114	-0.085512	0.445759	8.384357	-32.873810	30.702871	63.065502	-51.552563	49.660183	32.425476	-7.115885	9.771270	-3.426726	19.726904	-26.761478	14.125546	11.280906	-34.541317	
122.848366	36.652073	124.849136	-17.468771	-8.392470	-76.867859	-10.551844	12.572823	-0.732050	-3.941300	-9.270826	9.375587	13.967161	12.338671	-5.080712	-11.647197	-16.435278	-1.508020	-23.554049	118.214836	55.567787	2.612119	10.527955	-12.170163	-7.762415	8.511974	6.674498	-1.466724	-1.500762	-20.953400	-5.876328	-25.531633	-27.501417	-99.666855	-21.406094	-58.900684	-8.986609	35.207466	-22.566133	-4.748985	-0.065241	0.414338	8.219561	-32.790604	30.605211	62.597393	-51.280670	49.275726	32.194420	-6.084882	10.077467	-3.390281	19.888605	-26.748663	14.220059	11.273995	-34.417179	
122.847565	36.652340	124.848618	-17.468771	-8.392470	-76.867859	-10.550329	12.577152	-0.715527	-3.945515	-9.274008	9.358249	13.967161	12.338671	-5.080712	-11.647197	-16.435278	-1.508020	-23.553514	118.214279	55.580013	2.615099	10.527493	-12.183074	-7.770884	8.500026	6.683177	-1.457203	-1.489683	-20.960550	-5.875637	-25.528904	-27.501450	-99.661308	-21.404604	-58.901905	-9.030066	35.214855	-22.540318	-4.730427	-0.050250	0.397162	8.156782	-32.760311	30.585840	62.474545	-51.220272	49.194523	32.166748	-5.847161	10.143450	-3.372909	19.935055	-26.750679	14.259774	11.272433	-34.399109	
122.846779	36.652599	124.848114	-17.468771	-8.392470	-76.867859	-10.548851	12.581370	-0.699386	-3.949637	-9.277099	9.341311	13.967161	12.338671	-5.080712	-11.647197	-16.435278	-1.508020	-23.551880	118.212410	55.618736	2.624534	10.526076	-12.223898	-7.771885	8.498321	6.684309	-1.456045	-1.488078	-20.961493	-5.932216	-25.516632	-27.521561	-99.597420	-21.402014	-58.772488	-9.012959	35.184578	-22.678558	-4.707349	-0.040002	0.370047	8.106314	-32.672455	30.590591	62.004955	-50.992443	48.561455	32.081554	-5.261912	10.497943	-3.359778	20.013834	-26.740856	14.365501	11.276194	-34.358112	
122.846008	36.652851	124.847618	-17.468771	-8.392470	-76.867859	-10.547396	12.585511	-0.683504	-3.953693	-9.280131	9.324647	13.967161	12.338671	-5.080712	-11.647197	-16.435278	-1.508020	-23.551382	118.211830	55.630424	2.627387	10.525645	-12.236229	-7.771885	8.498321	6.684309	-1.456045	-1.488078	-20.961493	-5.971343	-25.508133	-27.535473	-99.593941	-21.408815	-58.738773	-9.022630	35.201237	-22.692793	-4.706484	-0.039573	0.368921	8.088774	-32.630543	30.581257	61.948807	-50.956253	48.390278	32.012909	-5.016051	10.502686	-3.346471	20.102299	-26.728512	14.431391	11.224499	-34.349472	
122.845291	36.653095	124.847153	-17.468771	-8.392470	-76.867859	-10.546035	12.589389	-0.668673	-3.957485	-9.282969	9.309082	13.967161	12.338671	-5.080712	-11.647197	-16.435278	-1.508020	-23.549879	118.210083	55.666222	2.636125	10.524341	-12.273958	-7.775050	8.494411	6.675016	-1.452227	-1.484810	-20.951643	-6.086108	-25.483154	-27.576223	-99.483788	-21.405392	-58.729778	-9.091142	35.157677	-22.637888	-4.702915	-0.036868	0.378936	8.037421	-32.566959	30.569782	62.027775	-51.005772	48.475079	31.983595	-4.863214	10.500873	-3.341500	20.139444	-26.712549	14.475174	11.239968	-34.326775	
